{"accessors":[{"bufferView":0,"byteOffset":0,"componentType":5126,"count":1,"max":[0],"min":[0],"normalized":false,"type":"SCALAR"},{"bufferView":1,"byteOffset":0,"componentType":5126,"count":1,"max":[50,0,0],"min":[50,0,0],"normalized":false,"type":"VEC3"},{"bufferView":2,"byteOffset":0,"componentType":5126,"count":1,"max":[0],"min":[0],"normalized":false,"type":"SCALAR"},{"bufferView":3,"byteOffset":0,"componentType":5126,"count":1,"max":[-50,0,0],"min":[-50,0,0],"normalized":false,"type":"VEC3"},{"bufferView":4,"byteOffset":0,"componentType":5126,"count":1,"max":[0],"min":[0],"normalized":false,"type":"SCALAR"},{"bufferView":5,"byteOffset":0,"componentType":5126,"count":1,"max":[50,0,0],"min":[50,0,0],"normalized":false,"type":"VEC3"},{"bufferView":6,"byteOffset":0,"componentType":5126,"count":1,"max":[0],"min":[0],"normalized":false,"type":"SCALAR"},{"bufferView":7,"byteOffset":0,"componentType":5126,"count":1,"max":[-50,0,0],"min":[-50,0,0],"normalized":false,"type":"VEC3"},{"bufferView":8,"byteOffset":0,"componentType":5126,"count":1,"max":[0],"min":[0],"normalized":false,"type":"SCALAR"},{"bufferView":9,"byteOffset":0,"componentType":5126,"count":1,"max":[-100,0,0],"min":[-100,0,0],"normalized":false,"type":"VEC3"},{"bufferView":10,"byteOffset":0,"componentType":5126,"count":1,"max":[0],"min":[0],"normalized":false,"type":"SCALAR"},{"bufferView":11,"byteOffset":0,"componentType":5126,"count":1,"max":[100,0,0],"min":[100,0,0],"normalized":false,"type":"VEC3"},{"bufferView":12,"byteOffset":0,"componentType":5126,"count":1,"max":[0],"min":[0],"normalized":false,"type":"SCALAR"},{"bufferView":13,"byteOffset":0,"componentType":5126,"count":1,"max":[-150,0,0],"min":[-150,0,0],"normalized":false,"type":"VEC3"},{"bufferView":14,"byteOffset":0,"componentType":5126,"count":1,"max":[0],"min":[0],"normalized":false,"type":"SCALAR"},{"bufferView":15,"byteOffset":0,"componentType":5126,"count":1,"max":[150,0,0],"min":[150,0,0],"normalized":false,"type":"VEC3"},{"bufferView":16,"byteOffset":0,"componentType":5126,"count":1,"max":[0],"min":[0],"normalized":false,"type":"SCALAR"},{"bufferView":17,"byteOffset":0,"componentType":5126,"count":1,"max":[-200,0,0],"min":[-200,0,0],"normalized":false,"type":"VEC3"},{"bufferView":18,"byteOffset":0,"componentType":5126,"count":1,"max":[0],"min":[0],"normalized":false,"type":"SCALAR"},{"bufferView":19,"byteOffset":0,"componentType":5126,"count":1,"max":[200,0,0],"min":[200,0,0],"normalized":false,"type":"VEC3"},{"bufferView":20,"byteOffset":0,"componentType":5126,"count":1,"max":[0],"min":[0],"normalized":false,"type":"SCALAR"},{"bufferView":21,"byteOffset":0,"componentType":5126,"count":1,"max":[0,-0.00000381469999,0],"min":[0,-0.00000381469999,0],"normalized":false,"type":"VEC3"},{"bufferView":22,"byteOffset":0,"componentType":5126,"count":2,"max":[0.125],"min":[0.025000000372529],"normalized":false,"type":"SCALAR"},{"bufferView":23,"byteOffset":0,"componentType":5126,"count":2,"max":[0,-0.00000381469999,0],"min":[0,-50,0],"normalized":false,"type":"VEC3"},{"bufferView":24,"byteOffset":0,"componentType":5126,"count":1,"max":[0],"min":[0],"normalized":false,"type":"SCALAR"},{"bufferView":25,"byteOffset":0,"componentType":5126,"count":1,"max":[0,-50,0],"min":[0,-50,0],"normalized":false,"type":"VEC3"},{"bufferView":26,"byteOffset":0,"componentType":5126,"count":1,"max":[0],"min":[0],"normalized":false,"type":"SCALAR"},{"bufferView":27,"byteOffset":0,"componentType":5126,"count":1,"max":[0,-0.00000381469999,0],"min":[0,-0.00000381469999,0],"normalized":false,"type":"VEC3"},{"bufferView":28,"byteOffset":0,"componentType":5126,"count":2,"max":[0.125],"min":[0.025000000372529],"normalized":false,"type":"SCALAR"},{"bufferView":29,"byteOffset":0,"componentType":5126,"count":2,"max":[0,-0.00000381469999,0],"min":[0,-50,0],"normalized":false,"type":"VEC3"},{"bufferView":30,"byteOffset":0,"componentType":5126,"count":1,"max":[0],"min":[0],"normalized":false,"type":"SCALAR"},{"bufferView":31,"byteOffset":0,"componentType":5126,"count":1,"max":[0,-50,0],"min":[0,-50,0],"normalized":false,"type":"VEC3"},{"bufferView":32,"byteOffset":0,"componentType":5126,"count":1,"max":[0],"min":[0],"normalized":false,"type":"SCALAR"},{"bufferView":33,"byteOffset":0,"componentType":5126,"count":1,"max":[0,-0.00000381469999,0],"min":[0,-0.00000381469999,0],"normalized":false,"type":"VEC3"},{"bufferView":34,"byteOffset":0,"componentType":5126,"count":2,"max":[0.125],"min":[0.025000000372529],"normalized":false,"type":"SCALAR"},{"bufferView":35,"byteOffset":0,"componentType":5126,"count":2,"max":[0,-0.00000381469999,0],"min":[0,-50,0],"normalized":false,"type":"VEC3"},{"bufferView":36,"byteOffset":0,"componentType":5126,"count":1,"max":[0],"min":[0],"normalized":false,"type":"SCALAR"},{"bufferView":37,"byteOffset":0,"componentType":5126,"count":1,"max":[0,-50,0],"min":[0,-50,0],"normalized":false,"type":"VEC3"}],"animations":[{"channels":[{"sampler":0,"target":{"node":19,"path":"translation"}},{"sampler":1,"target":{"node":17,"path":"translation"}}],"name":"RESET3","samplers":[{"input":0,"interpolation":"LINEAR","output":1},{"input":2,"interpolation":"LINEAR","output":3}]},{"channels":[{"sampler":0,"target":{"node":19,"path":"translation"}},{"sampler":1,"target":{"node":17,"path":"translation"}}],"name":"Size1","samplers":[{"input":4,"interpolation":"LINEAR","output":5},{"input":6,"interpolation":"LINEAR","output":7}]},{"channels":[{"sampler":0,"target":{"node":17,"path":"translation"}},{"sampler":1,"target":{"node":19,"path":"translation"}}],"name":"Size2","samplers":[{"input":8,"interpolation":"LINEAR","output":9},{"input":10,"interpolation":"LINEAR","output":11}]},{"channels":[{"sampler":0,"target":{"node":17,"path":"translation"}},{"sampler":1,"target":{"node":19,"path":"translation"}}],"name":"Size3","samplers":[{"input":12,"interpolation":"LINEAR","output":13},{"input":14,"interpolation":"LINEAR","output":15}]},{"channels":[{"sampler":0,"target":{"node":17,"path":"translation"}},{"sampler":1,"target":{"node":19,"path":"translation"}}],"name":"Size4","samplers":[{"input":16,"interpolation":"LINEAR","output":17},{"input":18,"interpolation":"LINEAR","output":19}]},{"channels":[{"sampler":0,"target":{"node":37,"path":"translation"}}],"name":"Closed","samplers":[{"input":20,"interpolation":"LINEAR","output":21}]},{"channels":[{"sampler":0,"target":{"node":37,"path":"translation"}}],"name":"Open","samplers":[{"input":22,"interpolation":"LINEAR","output":23}]},{"channels":[{"sampler":0,"target":{"node":37,"path":"translation"}}],"name":"RESET5","samplers":[{"input":24,"interpolation":"LINEAR","output":25}]},{"channels":[{"sampler":0,"target":{"node":43,"path":"translation"}}],"name":"Closed2","samplers":[{"input":26,"interpolation":"LINEAR","output":27}]},{"channels":[{"sampler":0,"target":{"node":43,"path":"translation"}}],"name":"Open2","samplers":[{"input":28,"interpolation":"LINEAR","output":29}]},{"channels":[{"sampler":0,"target":{"node":43,"path":"translation"}}],"name":"RESET6","samplers":[{"input":30,"interpolation":"LINEAR","output":31}]},{"channels":[{"sampler":0,"target":{"node":54,"path":"translation"}}],"name":"Closed3","samplers":[{"input":32,"interpolation":"LINEAR","output":33}]},{"channels":[{"sampler":0,"target":{"node":54,"path":"translation"}}],"name":"Open3","samplers":[{"input":34,"interpolation":"LINEAR","output":35}]},{"channels":[{"sampler":0,"target":{"node":54,"path":"translation"}}],"name":"RESET8","samplers":[{"input":36,"interpolation":"LINEAR","output":37}]}],"asset":{"generator":"Godot Engine v4.3.stable.official@77dcf97d82cbfe4e4615475fa52ca03da645dbd8","version":"2.0"},"bufferViews":[{"buffer":0,"byteLength":4,"byteOffset":0},{"buffer":0,"byteLength":12,"byteOffset":4},{"buffer":0,"byteLength":4,"byteOffset":16},{"buffer":0,"byteLength":12,"byteOffset":20},{"buffer":0,"byteLength":4,"byteOffset":32},{"buffer":0,"byteLength":12,"byteOffset":36},{"buffer":0,"byteLength":4,"byteOffset":48},{"buffer":0,"byteLength":12,"byteOffset":52},{"buffer":0,"byteLength":4,"byteOffset":64},{"buffer":0,"byteLength":12,"byteOffset":68},{"buffer":0,"byteLength":4,"byteOffset":80},{"buffer":0,"byteLength":12,"byteOffset":84},{"buffer":0,"byteLength":4,"byteOffset":96},{"buffer":0,"byteLength":12,"byteOffset":100},{"buffer":0,"byteLength":4,"byteOffset":112},{"buffer":0,"byteLength":12,"byteOffset":116},{"buffer":0,"byteLength":4,"byteOffset":128},{"buffer":0,"byteLength":12,"byteOffset":132},{"buffer":0,"byteLength":4,"byteOffset":144},{"buffer":0,"byteLength":12,"byteOffset":148},{"buffer":0,"byteLength":4,"byteOffset":160},{"buffer":0,"byteLength":12,"byteOffset":164},{"buffer":0,"byteLength":8,"byteOffset":176},{"buffer":0,"byteLength":24,"byteOffset":184},{"buffer":0,"byteLength":4,"byteOffset":208},{"buffer":0,"byteLength":12,"byteOffset":212},{"buffer":0,"byteLength":4,"byteOffset":224},{"buffer":0,"byteLength":12,"byteOffset":228},{"buffer":0,"byteLength":8,"byteOffset":240},{"buffer":0,"byteLength":24,"byteOffset":248},{"buffer":0,"byteLength":4,"byteOffset":272},{"buffer":0,"byteLength":12,"byteOffset":276},{"buffer":0,"byteLength":4,"byteOffset":288},{"buffer":0,"byteLength":12,"byteOffset":292},{"buffer":0,"byteLength":8,"byteOffset":304},{"buffer":0,"byteLength":24,"byteOffset":312},{"buffer":0,"byteLength":4,"byteOffset":336},{"buffer":0,"byteLength":12,"byteOffset":340}],"buffers":[{"byteLength":352,"uri":"game0.bin"}],"extensionsUsed":["GODOT_single_root"],"nodes":[{"children":[1,6,7,8,13,25,36,42,48,53],"name":"Game"},{"children":[2,3,4,5],"name":"SnowballEnemy2"},{"name":"Sprite2D"},{"name":"CollisionShape2D"},{"name":"CollisionShape2D2"},{"name":"AnimationPlayer"},{"name":"Camera2D"},{"name":"TileMapLayer"},{"children":[9,10,11,12],"name":"SnowballEnemy"},{"name":"Sprite2D2"},{"name":"CollisionShape2D3"},{"name":"CollisionShape2D22"},{"name":"AnimationPlayer2"},{"children":[14,15,16,18,20,22,24],"name":"Snowball"},{"name":"Sprite2D3"},{"name":"CollisionShape2D4"},{"children":[17],"name":"PushRight"},{"name":"CollisionShape2D5"},{"children":[19],"name":"PushLeft"},{"name":"CollisionShape2D6"},{"children":[21],"name":"AnimatableBody2D"},{"name":"CollisionShape2D7"},{"children":[23],"name":"EnemyDetector"},{"name":"CollisionShape2D8"},{"name":"AnimationPlayer3"},{"children":[26,28,29,31,33,34,35],"name":"Player"},{"children":[27],"name":"Sprite2D4"},{"name":"AnimationPlayer4"},{"name":"CollisionShape2D9"},{"children":[30],"name":"FloorChecker"},{"name":"CollisionShape2D10"},{"children":[32],"name":"SnowballChecker"},{"name":"CollisionShape2D11"},{"name":"Coyote"},{"name":"JumpBuffer"},{"name":"TallJump"},{"children":[37,38,39,41],"name":"Spring"},{"name":"Sprite2D5"},{"name":"CollisionShape2D12"},{"children":[40],"name":"SnowballDetector"},{"name":"CollisionShape2D13"},{"name":"AnimationPlayer5"},{"children":[43,44,45,47],"name":"Spring2"},{"name":"Sprite2D6"},{"name":"CollisionShape2D14"},{"children":[46],"name":"SnowballDetector2"},{"name":"CollisionShape2D15"},{"name":"AnimationPlayer6"},{"children":[49,50,51,52],"name":"SnowballEnemy3"},{"name":"Sprite2D7"},{"name":"CollisionShape2D16"},{"name":"CollisionShape2D23"},{"name":"AnimationPlayer7"},{"children":[54,55,56,58],"name":"Spring3"},{"name":"Sprite2D8"},{"name":"CollisionShape2D17"},{"children":[57],"name":"SnowballDetector3"},{"name":"CollisionShape2D18"},{"name":"AnimationPlayer8"}],"scene":0,"scenes":[{"nodes":[0]}]}